# Blender v2.83.3 OBJ File: 'parachute.blend'
# www.blender.org
mtllib chute.mtl
o chute
v -3.000000 5.000000 3.000000
v 3.000000 5.000000 3.000000
v 3.000000 5.000000 -3.000000
v -3.000000 5.000000 -3.000000
v -2.782654 5.000000 2.782654
v 2.782654 5.000000 2.782654
v -2.782654 5.000000 -2.782654
v 2.782654 5.000000 -2.782654
v -2.945664 5.000000 -2.836991
v -0.136991 0.000000 0.054336
v -2.836991 5.000000 -2.945664
v -0.245664 0.000000 0.054336
v -0.245664 0.000000 -0.054336
v -0.136991 0.000000 -0.054336
v -2.836991 5.000000 -2.836991
v -2.945664 5.000000 -2.945664
v -2.945664 5.000000 -2.945664
v -2.836991 5.000000 -2.836991
v -0.136991 0.000000 -0.054336
v -0.245664 0.000000 -0.054336
v -0.245664 0.000000 0.054336
v -2.836991 5.000000 -2.945664
v -0.136991 0.000000 0.054336
v -2.945664 5.000000 -2.836991
v -2.945664 5.000000 2.836991
v -0.136991 0.000000 -0.054336
v -2.836991 5.000000 2.945664
v -0.245664 0.000000 -0.054336
v -0.245664 0.000000 0.054336
v -0.136991 0.000000 0.054336
v -2.836991 5.000000 2.836991
v -2.945664 5.000000 2.945664
v -2.945664 5.000000 2.945664
v -2.836991 5.000000 2.836991
v -0.136991 0.000000 0.054336
v -0.245664 0.000000 0.054336
v -0.245664 0.000000 -0.054336
v -2.836991 5.000000 2.945664
v -0.136991 0.000000 -0.054336
v -2.945664 5.000000 2.836991
v 2.945664 5.000000 -2.836991
v 0.136991 0.000000 0.054336
v 2.836991 5.000000 -2.945664
v 0.245664 0.000000 0.054336
v 0.245664 0.000000 -0.054336
v 0.136991 0.000000 -0.054336
v 2.836991 5.000000 -2.836991
v 2.945664 5.000000 -2.945664
v 2.945664 5.000000 -2.945664
v 2.836991 5.000000 -2.836991
v 0.136991 0.000000 -0.054336
v 0.245664 0.000000 -0.054336
v 0.245664 0.000000 0.054336
v 2.836991 5.000000 -2.945664
v 0.136991 0.000000 0.054336
v 2.945664 5.000000 -2.836991
v 2.945664 5.000000 2.836991
v 0.136991 0.000000 -0.054336
v 2.836991 5.000000 2.945664
v 0.245664 0.000000 -0.054336
v 0.245664 0.000000 0.054336
v 0.136991 0.000000 0.054336
v 2.836991 5.000000 2.836991
v 2.945664 5.000000 2.945664
v 2.945664 5.000000 2.945664
v 2.836991 5.000000 2.836991
v 0.136991 0.000000 0.054336
v 0.245664 0.000000 0.054336
v 0.245664 0.000000 -0.054336
v 2.836991 5.000000 2.945664
v 0.136991 0.000000 -0.054336
v 2.945664 5.000000 2.836991
v -2.892857 5.107143 2.892858
v 2.892858 5.107143 2.892858
v 2.892858 5.107143 -2.892857
v -2.892857 5.107143 -2.892857
vt 0.046875 0.046875
vt 0.031250 0.031250
vt 0.906250 0.031250
vt 0.890625 0.046875
vt 0.062500 0.000000
vt 0.875000 0.000000
vt 0.031250 0.906250
vt 0.906250 0.906250
vt 0.875000 0.937500
vt 0.062500 0.937500
vt 0.937500 0.062500
vt 0.937500 0.875000
vt 0.000000 0.875000
vt 0.000000 0.062500
vt 1.000000 0.796875
vt 1.000000 0.000000
vt 0.953125 0.015625
vt 0.953125 0.812500
vt 1.000000 0.000000
vt 1.000000 0.796875
vt 0.953125 0.796875
vt 0.953125 0.000000
vt 1.000000 0.796875
vt 1.000000 0.000000
vt 0.953125 0.015625
vt 0.953125 0.812500
vt 1.000000 0.000000
vt 1.000000 0.796875
vt 0.953125 0.796875
vt 0.953125 0.000000
vt 0.953125 0.000000
vt 1.000000 0.000000
vt 1.000000 0.796875
vt 0.953125 0.796875
vt 1.000000 0.796875
vt 0.953125 0.812500
vt 0.953125 0.015625
vt 1.000000 0.000000
vt 1.000000 0.796875
vt 0.953125 0.796875
vt 0.953125 0.000000
vt 1.000000 0.000000
vt 1.000000 0.796875
vt 0.953125 0.812500
vt 0.953125 0.015625
vt 1.000000 0.000000
vt 1.000000 0.796875
vt 1.000000 0.000000
vt 0.953125 0.015625
vt 0.953125 0.812500
vt 1.000000 0.000000
vt 1.000000 0.796875
vt 0.953125 0.796875
vt 0.953125 0.000000
vt 1.000000 0.796875
vt 1.000000 0.000000
vt 0.953125 0.015625
vt 0.953125 0.812500
vt 1.000000 0.000000
vt 1.000000 0.796875
vt 0.953125 0.796875
vt 0.953125 0.000000
vt 0.953125 0.000000
vt 1.000000 0.000000
vt 1.000000 0.796875
vt 0.953125 0.796875
vt 1.000000 0.796875
vt 0.953125 0.812500
vt 0.953125 0.015625
vt 1.000000 0.000000
vt 1.000000 0.796875
vt 0.953125 0.796875
vt 0.953125 0.000000
vt 1.000000 0.000000
vt 1.000000 0.796875
vt 0.953125 0.812500
vt 0.953125 0.015625
vt 1.000000 0.000000
vt 0.890625 0.890625
vt 0.046875 0.890625
vt 0.031250 0.906250
vt 0.031250 0.031250
vt 0.906250 0.031250
vt 0.906250 0.906250
vn 0.7071 -0.7071 0.0000
vn 0.0000 1.0000 0.0000
vn -0.7068 0.0270 -0.7068
vn 0.5547 0.6203 -0.5547
vn 0.7068 -0.0270 -0.7068
vn -0.5547 -0.6203 -0.5547
vn 0.5547 0.6203 0.5547
vn -0.7068 0.0270 0.7068
vn -0.5547 -0.6203 0.5547
vn 0.7068 -0.0270 0.7068
vn -0.7068 -0.0270 0.7068
vn 0.5547 -0.6203 0.5547
vn 0.7068 0.0270 0.7068
vn -0.5547 0.6203 0.5547
vn 0.5547 -0.6203 -0.5547
vn -0.7068 -0.0270 -0.7068
vn -0.5547 0.6203 -0.5547
vn 0.7068 0.0270 -0.7068
vn 0.0000 -0.7071 0.7071
vn -0.7071 -0.7071 0.0000
vn 0.0000 -0.7071 -0.7071
vn 0.0000 -0.7170 0.6971
vn -0.6971 -0.7170 0.0000
vn 0.0000 -0.7170 -0.6971
vn 0.6971 -0.7170 0.0000
usemtl chute
s off
f 73/1/1 1/2/1 4/3/1 76/4/1
f 4/3/2 1/2/2 5/5/2 7/6/2
f 2/7/2 3/8/2 8/9/2 6/10/2
f 3/8/2 4/3/2 7/11/2 8/12/2
f 1/2/2 2/7/2 6/13/2 5/14/2
f 31/15/3 26/16/3 29/17/3 32/18/3
f 28/19/4 25/20/4 27/21/4 30/22/4
f 15/23/5 10/24/5 13/25/5 16/26/5
f 12/27/6 9/28/6 11/29/6 14/30/6
f 21/31/7 19/32/7 22/33/7 24/34/7
f 18/35/8 17/36/8 20/37/8 23/38/8
f 37/39/9 35/40/9 38/41/9 40/42/9
f 34/43/10 33/44/10 36/45/10 39/46/10
f 63/47/11 58/48/11 61/49/11 64/50/11
f 60/51/12 57/52/12 59/53/12 62/54/12
f 47/55/13 42/56/13 45/57/13 48/58/13
f 44/59/14 41/60/14 43/61/14 46/62/14
f 53/63/15 51/64/15 54/65/15 56/66/15
f 50/67/16 49/68/16 52/69/16 55/70/16
f 69/71/17 67/72/17 70/73/17 72/74/17
f 66/75/18 65/76/18 68/77/18 71/78/18
f 4/3/19 3/8/19 75/79/19 76/4/19
f 3/8/20 2/7/20 74/80/20 75/79/20
f 2/7/21 1/2/21 73/1/21 74/80/21
f 6/81/22 74/80/22 73/1/22 5/82/22
f 7/83/23 5/82/23 73/1/23 76/4/23
f 7/83/24 76/4/24 75/79/24 8/84/24
f 8/84/25 75/79/25 74/80/25 6/81/25
